<?xml version="1.0" standalone="no"?>
<!DOCTYPE svg PUBLIC "-//W3C//DTD SVG 20010904//EN"
 "http://www.w3.org/TR/2001/REC-SVG-20010904/DTD/svg10.dtd">
<svg version="1.0" xmlns="http://www.w3.org/2000/svg"
 width="2000.000000pt" height="2000.000000pt" viewBox="0 0 2000.000000 2000.000000"
 preserveAspectRatio="xMidYMid meet">
<metadata>
Created by potrace 1.11, written by Peter Selinger 2001-2013
</metadata>
<g transform="translate(0.000000,2000.000000) scale(0.100000,-0.100000)"
fill="#000000" stroke="none">
<path d="M0 10000 l0 -10000 10000 0 10000 0 0 10000 0 10000 -10000 0 -10000
0 0 -10000z m12479 3446 c48 -46 56 -96 55 -336 -1 -167 -7 -263 -27 -430 -43
-348 -212 -1972 -347 -3335 l-51 -510 -29 -27 c-57 -53 -201 -74 -289 -43 -64
22 -128 71 -156 120 l-26 43 96 1139 c52 626 111 1323 130 1548 93 1103 97
1317 34 1574 l-21 85 23 19 c34 27 128 73 234 115 199 78 319 90 374 38z
m-1420 -210 c36 -33 50 -74 61 -194 12 -126 3 -275 -35 -607 -51 -439 -164
-1532 -315 -3025 l-80 -795 -27 -22 c-68 -56 -220 -73 -305 -35 -67 29 -115
69 -143 116 l-24 41 29 335 c41 467 46 435 -47 302 -142 -202 -246 -325 -433
-513 -339 -340 -609 -511 -925 -586 -43 -11 -110 -17 -175 -17 -345 2 -644
202 -810 543 -20 42 -41 87 -47 100 -9 24 -11 22 -48 -40 -224 -374 -498 -674
-735 -807 -84 -47 -224 -90 -325 -100 -290 -29 -465 83 -523 332 -13 57 -16
124 -16 341 1 243 5 311 43 685 45 436 46 499 12 575 -31 68 -72 98 -138 103
-53 3 -64 0 -123 -35 -35 -21 -105 -78 -155 -128 -195 -193 -352 -494 -470
-901 -76 -263 -117 -531 -131 -867 l-7 -158 -31 -24 c-85 -63 -274 -135 -356
-135 -79 0 -106 19 -120 83 -13 66 -4 160 50 472 77 446 117 875 107 1153 -10
286 -48 366 -171 366 -59 0 -150 -44 -246 -120 -206 -163 -407 -543 -520 -983
-48 -191 -120 -748 -120 -938 l0 -71 -158 -99 c-187 -118 -198 -123 -264 -123
-45 0 -54 4 -82 34 -41 42 -56 94 -56 187 0 41 34 457 75 924 84 945 93 1079
76 1175 -6 36 -12 74 -13 85 -4 25 105 92 259 160 171 76 250 67 296 -33 28
-61 34 -237 14 -412 -8 -69 -13 -126 -12 -128 2 -2 26 34 53 80 179 296 431
583 627 713 116 78 217 116 322 123 74 4 87 2 136 -22 60 -29 129 -97 170
-166 52 -90 107 -309 107 -429 0 -101 7 -100 75 12 138 231 221 342 360 486
249 257 493 365 693 306 102 -31 206 -147 265 -295 53 -135 70 -254 71 -495 0
-193 -6 -278 -48 -685 -29 -290 -45 -484 -41 -515 10 -83 27 -124 63 -157 33
-28 39 -30 102 -26 108 6 182 49 316 182 128 127 253 292 376 492 155 254 165
276 173 384 20 294 151 686 327 979 135 226 343 455 517 569 164 107 338 159
501 149 115 -7 170 -28 239 -93 88 -81 114 -147 119 -298 6 -171 -20 -285
-103 -461 -120 -252 -280 -436 -787 -906 -208 -193 -245 -232 -241 -251 77
-349 326 -519 666 -454 155 30 299 109 477 263 254 218 493 501 753 891 100
151 117 181 122 225 8 74 150 1798 175 2132 29 378 16 652 -37 823 -20 64 -22
62 122 132 246 119 429 155 494 96z m3937 -1387 c105 -27 143 -106 151 -314 5
-125 3 -144 -56 -490 -99 -589 -147 -960 -171 -1320 -6 -93 -20 -280 -30 -415
-31 -388 -39 -499 -65 -945 -33 -558 -52 -933 -65 -1260 -14 -379 -19 -460
-32 -497 -31 -92 -90 -127 -213 -128 -64 0 -90 5 -133 25 -69 32 -164 107
-195 154 l-25 37 29 245 c16 134 44 399 64 589 35 346 100 944 155 1440 16
146 36 362 45 480 9 118 18 226 21 240 9 38 0 25 -69 -111 -125 -248 -262
-416 -418 -512 -134 -83 -169 -92 -359 -92 -155 1 -170 2 -245 29 -44 15 -96
37 -115 49 -177 107 -284 304 -319 587 -28 217 1 657 69 1060 33 197 52 361
53 470 1 95 -2 111 -27 165 -15 33 -36 70 -47 82 l-21 21 55 41 c127 97 338
157 457 132 79 -16 118 -43 143 -99 20 -42 22 -63 21 -192 -1 -168 -13 -246
-113 -770 -88 -459 -95 -514 -88 -675 8 -212 48 -333 130 -399 34 -27 47 -31
116 -34 68 -4 84 -1 129 22 200 101 454 539 631 1089 97 298 127 488 119 751
-5 173 -17 213 -87 289 l-42 45 68 57 c74 62 224 140 294 154 64 13 134 13
185 0z m1256 -1850 c136 -29 189 -190 113 -345 -35 -72 -164 -204 -247 -253
-121 -70 -173 -86 -288 -86 -97 0 -110 2 -165 30 -78 39 -105 87 -105 186 0
173 173 351 423 435 126 42 189 50 269 33z"/>
<path d="M8769 10737 c-120 -44 -245 -188 -336 -385 -51 -109 -118 -320 -142
-443 -20 -104 -46 -367 -37 -376 7 -8 400 389 465 470 91 113 165 235 202 335
29 76 33 99 33 187 1 81 -3 107 -19 139 -36 70 -98 98 -166 73z"/>
</g>
</svg>
